<?xml version="1.0" standalone="no"?>
<!DOCTYPE svg PUBLIC "-//W3C//DTD SVG 20010904//EN"
 "http://www.w3.org/TR/2001/REC-SVG-20010904/DTD/svg10.dtd">
<svg version="1.0" xmlns="http://www.w3.org/2000/svg"
 width="600.000000pt" height="600.000000pt" viewBox="0 0 600.000000 600.000000"
 preserveAspectRatio="xMidYMid meet">
<g transform="translate(0.000000,600.000000) scale(0.100000,-0.100000)"
fill="#000000" stroke="none">
<path d="M5299 5993 c-6 -33 -5 -52 2 -47 4 2 6 12 3 22 -2 9 1 7 7 -5 7 -13
19 -23 26 -23 8 0 26 -9 40 -20 l26 -20 12 22 c16 31 9 40 -24 33 -23 -5 -31
-1 -45 20 -15 23 -44 34 -47 18z"/>
<path d="M5367 5983 c-10 -9 -9 -23 2 -23 5 0 11 7 15 15 5 15 -5 20 -17 8z"/>
<path d="M213 5913 c4 -3 10 -3 14 0 3 4 0 7 -7 7 -7 0 -10 -3 -7 -7z"/>
<path d="M243 5883 c4 -3 10 -3 14 0 3 4 0 7 -7 7 -7 0 -10 -3 -7 -7z"/>
<path d="M5991 5764 c0 -11 3 -14 6 -6 3 7 2 16 -1 19 -3 4 -6 -2 -5 -13z"/>
<path d="M3259 5709 c-6 -12 -19 -44 -29 -72 -29 -84 -96 -218 -133 -270 l-34
-48 -7 28 c-3 15 -18 72 -33 126 -25 88 -31 98 -59 112 -36 17 -70 20 -78 6
-3 -5 -17 -73 -31 -151 -13 -79 -26 -145 -28 -146 -2 -2 -27 46 -56 106 -30
60 -59 114 -65 118 -6 5 -26 12 -43 15 -26 5 -35 2 -43 -13 -6 -10 -10 -100
-11 -207 -1 -110 -4 -178 -9 -163 -4 14 -8 53 -9 86 -1 60 -2 62 -36 79 -20 9
-43 15 -53 13 -21 -4 -61 -116 -62 -175 0 -45 -16 -68 -22 -31 -2 17 -14 27
-44 37 -74 26 -73 30 -73 -217 0 -121 -3 -230 -6 -243 -3 -14 0 -32 8 -43 12
-17 12 -25 -4 -60 -52 -120 -54 -315 -4 -456 16 -44 55 -200 50 -200 -1 0 -23
9 -47 20 -25 11 -68 25 -97 31 -50 10 -53 10 -101 -21 -67 -43 -117 -101 -130
-151 -32 -119 45 -384 138 -471 82 -77 226 -127 319 -112 39 6 39 6 52 -38 7
-23 28 -73 47 -110 l34 -67 -23 -6 c-12 -4 -76 -33 -142 -65 -66 -32 -173 -79
-238 -104 -65 -25 -153 -64 -195 -85 -43 -22 -125 -54 -182 -71 -139 -43 -156
-53 -170 -95 -10 -31 -9 -45 11 -98 12 -34 35 -85 51 -114 33 -59 166 -190
218 -215 19 -9 45 -26 57 -37 12 -12 27 -21 33 -21 20 0 9 -18 -15 -24 -13 -3
-31 -20 -40 -36 -14 -27 -13 -34 6 -85 11 -30 26 -55 32 -55 23 0 113 28 176
54 36 14 66 26 68 26 2 0 3 -13 3 -29 0 -41 38 -158 66 -207 14 -23 47 -62 73
-87 27 -25 47 -48 44 -50 -11 -12 29 -79 57 -95 26 -15 29 -21 24 -50 -6 -31
-5 -34 17 -31 36 3 59 -10 52 -29 -10 -29 -34 -51 -63 -57 -32 -7 -37 -16 -79
-160 -38 -131 -58 -239 -66 -350 -8 -121 -43 -294 -66 -327 -11 -14 -40 -36
-67 -48 -26 -12 -62 -29 -81 -38 -27 -14 -35 -14 -39 -4 -3 10 -8 8 -18 -7 -8
-11 -32 -25 -54 -31 -45 -12 -94 -54 -105 -88 -5 -17 0 -32 19 -57 14 -18 26
-38 26 -44 0 -6 18 -11 40 -11 39 0 67 -11 102 -38 55 -45 208 65 208 150 0
11 37 54 86 101 l86 82 19 110 c10 61 23 180 29 265 9 122 20 189 52 315 39
158 43 201 23 280 -8 32 10 48 67 56 29 4 68 11 86 15 l32 7 51 -109 c75 -161
213 -403 288 -507 69 -97 128 -196 184 -312 49 -102 87 -127 151 -104 32 12
36 11 54 -12 17 -21 28 -24 79 -22 91 2 183 50 183 94 0 29 -68 81 -102 78
-13 -1 -66 -1 -118 -1 l-95 2 -55 96 c-59 103 -96 160 -176 276 -28 40 -79
124 -113 187 -34 62 -86 150 -115 195 -29 44 -58 91 -65 103 -13 25 -21 21
134 57 160 37 296 141 331 252 13 41 26 62 43 71 49 24 51 63 6 129 -27 40
-32 72 -12 78 72 23 118 47 155 82 l44 42 -28 44 c-15 23 -42 61 -60 83 -39
48 -135 218 -211 373 l-55 114 38 31 c21 18 112 69 203 115 120 60 180 97 224
137 58 52 61 54 87 40 15 -8 53 -35 85 -61 32 -27 90 -69 129 -95 39 -26 91
-62 115 -79 71 -49 168 -74 265 -68 67 5 96 13 167 45 73 34 90 47 115 86 24
38 35 46 59 47 23 1 38 12 68 48 20 26 37 55 37 65 0 11 -29 78 -64 150 -50
104 -76 145 -122 192 -117 120 -339 275 -445 310 -40 14 -49 20 -43 34 4 9 9
52 11 96 6 119 -11 148 -212 360 -37 39 -62 56 -95 65 -25 7 -51 17 -58 23
-10 8 -16 7 -22 -2 -5 -9 -17 -11 -34 -7 -46 11 -31 -28 40 -102 128 -136 204
-263 204 -342 0 -81 -5 -88 -69 -95 -200 -20 -515 -88 -546 -116 -5 -5 -17 -9
-26 -9 -19 0 -23 -40 -5 -52 5 -3 -15 -19 -45 -35 -57 -30 -154 -121 -196
-184 -18 -27 -23 -44 -18 -61 10 -30 42 -61 50 -48 4 6 11 8 16 4 5 -3 16 0
24 6 8 6 19 9 25 5 6 -4 36 15 66 42 60 51 126 102 134 103 3 0 6 -10 7 -22 3
-30 28 -52 140 -128 53 -36 98 -69 100 -75 3 -13 -105 -83 -182 -116 -214 -94
-273 -122 -295 -144 -14 -13 -44 -28 -68 -35 -52 -13 -77 -47 -68 -92 3 -17
12 -38 19 -46 6 -8 12 -27 13 -41 1 -41 35 -305 41 -313 6 -12 -5 -10 -35 6
-60 30 -70 29 -91 -5 -13 -22 -18 -42 -14 -59 8 -34 15 -41 54 -46 38 -6 105
-42 131 -70 22 -25 49 -134 48 -192 -1 -26 4 -61 11 -79 25 -61 -22 -246 -54
-214 -19 19 -43 12 -105 -29 -34 -23 -72 -40 -87 -40 -16 0 -37 -7 -46 -16
-16 -14 -23 -15 -48 -4 -24 10 -41 8 -105 -9 -42 -11 -107 -24 -145 -27 l-69
-7 -63 54 c-35 30 -78 68 -95 86 -34 34 -64 108 -64 155 0 71 68 157 165 209
124 66 190 140 222 249 8 30 25 83 35 118 16 52 19 85 17 180 -4 112 -3 117
16 114 95 -13 112 -13 118 2 4 9 13 16 21 16 24 0 29 20 10 41 -9 10 -22 19
-27 19 -5 0 -33 15 -61 34 -28 18 -71 40 -94 47 -54 16 -77 44 -139 175 l-48
99 0 120 c0 108 2 123 23 152 27 38 27 47 3 81 -54 78 -120 232 -146 342 -14
63 -40 159 -57 212 -30 95 -30 100 -19 191 13 114 21 135 93 262 69 122 127
180 238 237 47 25 123 68 170 96 47 29 107 59 133 67 69 21 320 31 377 15 57
-15 141 -78 252 -186 73 -72 91 -85 115 -82 56 6 44 62 -34 153 -71 82 -188
171 -268 204 -56 24 -70 25 -232 24 -95 0 -173 3 -173 6 0 4 18 25 41 46 22
22 61 68 86 103 25 35 47 61 50 58 2 -2 0 -21 -6 -43 -13 -44 -14 -103 -3
-120 7 -12 57 -11 69 1 11 11 45 109 59 171 14 62 18 213 8 276 -5 29 -14 41
-44 58 -47 26 -66 27 -81 0z m-304 -518 c-5 -53 -11 -71 -22 -71 -9 0 -13 6
-10 14 3 8 9 32 12 53 11 67 16 85 22 80 3 -3 2 -38 -2 -76z m-126 -97 c21
-11 17 -14 -58 -58 -44 -25 -82 -46 -85 -46 -2 0 2 20 9 44 7 24 16 70 20 102
12 116 12 116 54 38 21 -38 48 -74 60 -80z m-260 -165 c-36 -28 -48 -23 -33
14 3 9 14 12 31 9 l26 -5 -24 -18z m-91 -37 c19 5 11 -11 -18 -41 l-30 -29 0
37 c0 43 8 55 26 41 6 -6 16 -9 22 -8z m-130 -1099 c42 -24 71 -62 105 -134
15 -33 15 -42 2 -105 -8 -38 -15 -86 -15 -106 l0 -37 -62 21 c-76 26 -132 59
-154 92 -23 36 -64 156 -64 191 0 22 11 42 41 72 35 37 45 41 72 36 18 -3 51
-16 75 -30z m1733 -154 c83 -27 126 -50 229 -119 102 -69 171 -128 234 -199
52 -58 101 -147 86 -156 -5 -3 -7 -12 -4 -20 3 -7 -4 -41 -17 -74 -29 -81 -73
-121 -133 -121 -90 0 -177 47 -370 197 -22 18 -67 52 -99 75 -31 24 -103 79
-160 123 -161 126 -200 148 -269 153 -37 3 -69 0 -83 -8 -13 -7 -28 -11 -35
-8 -7 2 19 27 56 55 38 28 83 63 99 77 43 38 67 42 271 44 109 2 141 -2 195
-19z m324 -129 c3 -5 4 -10 1 -10 -3 0 -8 5 -11 10 -3 6 -4 10 -1 10 3 0 8 -4
11 -10z m50 -40 c10 -11 16 -20 13 -20 -3 0 -13 9 -23 20 -10 11 -16 20 -13
20 3 0 13 -9 23 -20z m-740 -250 c-3 -5 -11 -10 -16 -10 -6 0 -7 5 -4 10 3 6
11 10 16 10 6 0 7 -4 4 -10z m-1040 -327 c40 -19 40 -19 21 -64 -7 -19 -16
-70 -20 -114 -4 -53 -19 -119 -44 -195 -44 -129 -70 -163 -156 -204 -77 -37
-147 -93 -191 -153 -26 -36 -45 -53 -56 -50 -40 11 -280 181 -338 240 -68 69
-115 137 -103 148 4 4 25 12 47 19 22 7 92 36 155 65 63 29 160 72 214 95 131
55 253 117 351 179 44 28 81 50 82 51 1 0 18 -8 38 -17z m655 -448 c35 -66 74
-134 87 -151 31 -42 29 -51 -12 -56 -33 -4 -36 -2 -45 31 -5 20 -10 41 -10 47
0 6 -14 37 -30 68 -26 48 -60 150 -60 180 0 14 3 10 70 -119z"/>
<path d="M3740 3621 c0 -5 -10 -11 -22 -13 -22 -3 -21 -4 7 -19 17 -9 47 -19
69 -23 62 -12 144 -53 231 -115 97 -71 142 -95 150 -81 3 6 3 15 -1 21 -4 8 0
8 15 0 29 -16 27 0 -4 29 -31 29 -33 50 -2 25 12 -10 -5 9 -39 41 -104 103
-147 120 -336 139 -44 4 -68 3 -68 -4z"/>
<path d="M650 5700 c0 -7 3 -10 7 -7 3 4 3 10 0 14 -4 3 -7 0 -7 -7z"/>
<path d="M5266 5674 c-25 -24 -19 -40 31 -83 46 -39 82 -89 142 -201 43 -79
62 -99 100 -106 l34 -7 -6 36 c-10 64 -95 257 -133 304 -55 66 -133 93 -168
57z"/>
<path d="M4868 5673 c7 -3 16 -2 19 1 4 3 -2 6 -13 5 -11 0 -14 -3 -6 -6z"/>
<path d="M4430 5658 c0 -11 87 -10 95 1 3 6 -16 9 -45 9 -27 -1 -50 -5 -50
-10z"/>
<path d="M4403 5653 c4 -3 10 -3 14 0 3 4 0 7 -7 7 -7 0 -10 -3 -7 -7z"/>
<path d="M773 5643 c4 -3 10 -3 14 0 3 4 0 7 -7 7 -7 0 -10 -3 -7 -7z"/>
<path d="M4990 5400 c-55 -12 -33 -50 62 -110 52 -32 115 -111 173 -217 51
-91 62 -103 102 -103 41 0 42 11 4 105 -81 204 -233 349 -341 325z"/>
<path d="M0 5230 c0 -7 3 -10 7 -7 3 4 3 10 0 14 -4 3 -7 0 -7 -7z"/>
<path d="M5675 5074 c-21 -32 -13 -69 21 -101 38 -35 75 -29 99 17 17 33 4 84
-25 100 -35 19 -77 12 -95 -16z"/>
<path d="M5190 4996 c0 -8 5 -18 10 -21 6 -3 10 1 10 9 0 8 -4 18 -10 21 -5 3
-10 -1 -10 -9z"/>
<path d="M3403 4832 c-60 -137 -68 -163 -59 -197 10 -41 43 -31 102 31 71 73
118 171 109 224 -7 40 -18 49 -70 56 -30 5 -31 3 -82 -114z"/>
<path d="M690 4860 c0 -7 3 -10 7 -7 3 4 3 10 0 14 -4 3 -7 0 -7 -7z"/>
<path d="M4860 4852 c-15 -10 -24 -24 -22 -34 4 -22 2 -22 41 -2 29 15 34 14
64 -3 40 -24 104 -106 118 -154 9 -29 8 -42 -5 -68 -10 -18 -24 -35 -32 -38
-17 -6 -49 19 -73 59 -11 16 -22 24 -29 19 -9 -5 -7 -18 8 -49 15 -31 19 -52
14 -77 -6 -32 -4 -36 22 -46 17 -6 57 -45 94 -92 53 -66 72 -83 103 -90 20 -5
44 -6 53 -3 13 5 13 9 -3 37 -10 17 -41 54 -69 82 l-52 52 43 47 c56 63 64
104 34 183 -52 139 -223 237 -309 177z"/>
<path d="M43 4743 c4 -3 10 -3 14 0 3 4 0 7 -7 7 -7 0 -10 -3 -7 -7z"/>
<path d="M5570 4713 c-26 -34 -23 -60 13 -87 26 -19 29 -19 55 -4 22 14 27 24
26 54 -3 64 -56 85 -94 37z"/>
<path d="M3640 4576 c-30 -30 -60 -66 -67 -80 -17 -33 -6 -85 22 -98 31 -14
108 35 173 112 51 61 58 90 22 90 -10 0 -20 4 -22 9 -1 5 -19 12 -38 16 -33 6
-39 3 -90 -49z"/>
<path d="M60 4590 c0 -7 3 -10 7 -7 3 4 3 10 0 14 -4 3 -7 0 -7 -7z"/>
<path d="M2936 4552 c-13 -22 49 -49 124 -56 91 -8 71 21 -30 44 -30 6 -62 14
-72 16 -9 3 -19 1 -22 -4z"/>
<path d="M4653 4514 c-3 -9 12 -52 36 -99 44 -85 44 -87 12 -134 -8 -12 -23
-2 -76 47 -69 65 -85 73 -85 45 0 -16 11 -35 76 -132 l23 -34 -32 -45 -32 -44
30 -24 c36 -28 43 -29 74 -8 22 16 24 16 48 -14 24 -32 96 -62 111 -48 4 4
-10 39 -31 78 -36 68 -37 72 -21 96 l16 24 41 -39 c45 -43 61 -51 120 -63 32
-6 37 -5 37 11 0 10 -12 29 -27 43 -16 13 -50 45 -78 69 -49 45 -49 46 -37 79
17 49 15 82 -9 112 -25 32 -43 33 -64 4 -13 -19 -17 -21 -25 -8 -4 8 -22 34
-39 58 -32 44 -57 53 -68 26z"/>
<path d="M3319 4383 c-27 -68 0 -300 39 -330 9 -7 37 -13 63 -13 43 0 48 2 57
29 8 23 7 40 -8 78 -10 26 -19 66 -21 88 l-3 40 35 -2 c19 -1 70 -18 113 -39
83 -38 117 -44 140 -25 22 19 9 38 -53 80 -82 56 -152 89 -223 106 -98 23
-126 20 -139 -12z"/>
<path d="M182 4369 c2 -7 10 -15 17 -17 8 -3 12 1 9 9 -2 7 -10 15 -17 17 -8
3 -12 -1 -9 -9z"/>
<path d="M4323 4348 c-34 -35 -72 -111 -73 -142 0 -22 47 -76 66 -76 7 0 17
12 22 28 l10 27 16 -37 c9 -21 16 -46 16 -57 0 -10 6 -21 14 -24 8 -3 37 -39
65 -80 31 -45 65 -81 84 -90 17 -9 33 -14 35 -12 8 8 -10 44 -53 100 -25 33
-45 65 -45 71 0 6 7 25 16 42 25 52 21 121 -10 175 -40 67 -80 107 -108 107
-14 0 -37 -14 -55 -32z m85 -137 l3 -44 -25 30 c-28 33 -26 66 3 61 11 -2 17
-16 19 -47z"/>
<path d="M1843 4343 c4 -3 10 -3 14 0 3 4 0 7 -7 7 -7 0 -10 -3 -7 -7z"/>
<path d="M2921 4308 c-5 -13 -5 -24 0 -26 5 -2 9 -12 9 -23 0 -11 9 -21 23
-24 68 -16 187 -35 218 -35 42 0 99 18 99 31 0 14 -66 39 -190 70 -138 35
-148 35 -159 7z"/>
<path d="M1583 3983 c4 -3 10 -3 14 0 3 4 0 7 -7 7 -7 0 -10 -3 -7 -7z"/>
<path d="M4730 3743 c0 -21 32 -50 79 -73 50 -23 52 -23 86 -7 36 17 145 24
145 10 7 -114 22 -150 73 -182 26 -16 40 -19 63 -12 74 22 114 62 114 115 0
32 -71 103 -127 127 -59 25 -183 35 -243 19 -25 -6 -52 -11 -60 -11 -57 4 -97
9 -112 16 -10 4 -18 3 -18 -2z m448 -136 c30 -28 28 -39 -7 -34 -42 7 -49 13
-44 42 6 26 13 25 51 -8z m-71 -24 c-4 -3 -10 -3 -14 0 -3 4 0 7 7 7 7 0 10
-3 7 -7z"/>
<path d="M650 3160 c0 -5 5 -10 11 -10 5 0 7 5 4 10 -3 6 -8 10 -11 10 -2 0
-4 -4 -4 -10z"/>
<path d="M5122 3145 c-34 -43 -31 -116 8 -165 39 -50 86 -66 145 -51 64 16 88
14 81 -5 -9 -23 33 -92 58 -97 39 -6 166 105 166 145 0 38 -58 116 -92 123
-55 13 -139 -5 -207 -43 l-64 -35 -19 22 c-10 13 -18 38 -18 56 0 18 -8 43
-18 55 l-18 23 -22 -28z"/>
<path d="M4123 2783 c-13 -2 -23 -10 -23 -17 0 -29 122 -114 175 -123 43 -7
127 5 120 18 -3 5 -31 16 -61 25 -76 22 -62 27 27 10 73 -14 129 -12 129 5 0
13 -68 45 -130 62 -58 16 -199 28 -237 20z"/>
<path d="M3955 2771 c-5 -8 55 -104 107 -170 18 -24 18 -25 -1 -45 -26 -27
-51 -88 -51 -121 0 -16 12 -38 29 -56 36 -36 82 -38 161 -8 69 26 80 35 80 68
0 29 -69 163 -104 201 -13 14 -35 42 -48 63 -14 21 -43 47 -64 57 -40 21 -99
27 -109 11z m194 -319 c0 -11 -2 -13 -6 -4 -4 10 -8 10 -21 0 -14 -12 -14 -10
-3 10 13 25 31 21 30 -6z"/>
<path d="M4495 2597 c14 -24 25 -47 25 -50 0 -3 -16 1 -36 9 -20 8 -52 14 -71
12 -33 -3 -36 -6 -38 -37 -2 -27 4 -40 36 -72 46 -46 101 -64 150 -48 19 7 38
15 43 20 13 12 -33 146 -62 180 -14 18 -34 29 -48 29 l-25 0 26 -43z"/>
<path d="M110 2070 c-8 -5 -12 -12 -9 -15 4 -3 12 1 19 10 14 17 11 19 -10 5z"/>
<path d="M120 2020 c0 -5 5 -10 10 -10 6 0 10 5 10 10 0 6 -4 10 -10 10 -5 0
-10 -4 -10 -10z"/>
<path d="M50 1700 c0 -7 3 -10 7 -7 3 4 3 10 0 14 -4 3 -7 0 -7 -7z"/>
<path d="M591 1634 c0 -11 3 -14 6 -6 3 7 2 16 -1 19 -3 4 -6 -2 -5 -13z"/>
<path d="M2470 1405 c-19 -23 -7 -39 13 -17 10 11 14 23 9 26 -5 3 -15 -1 -22
-9z"/>
<path d="M5960 940 c0 -7 3 -10 7 -7 3 4 3 10 0 14 -4 3 -7 0 -7 -7z"/>
<path d="M463 853 c4 -3 10 -3 14 0 3 4 0 7 -7 7 -7 0 -10 -3 -7 -7z"/>
<path d="M5988 750 c-7 -24 -3 -38 8 -28 3 4 4 17 2 30 l-3 23 -7 -25z"/>
<path d="M780 690 c0 -7 3 -10 7 -7 3 4 3 10 0 14 -4 3 -7 0 -7 -7z"/>
<path d="M5975 645 c6 -76 16 -159 21 -164 2 -2 4 42 4 98 0 60 -4 100 -9 96
-5 -3 -12 3 -15 12 -3 10 -3 -9 -1 -42z"/>
<path d="M280 660 c0 -5 5 -10 10 -10 6 0 10 5 10 10 0 6 -4 10 -10 10 -5 0
-10 -4 -10 -10z"/>
<path d="M495 620 c3 -5 8 -10 11 -10 2 0 4 5 4 10 0 6 -5 10 -11 10 -5 0 -7
-4 -4 -10z"/>
<path d="M4123 403 c4 -3 10 -3 14 0 3 4 0 7 -7 7 -7 0 -10 -3 -7 -7z"/>
<path d="M215 360 c-3 -5 -1 -10 4 -10 6 0 11 5 11 10 0 6 -2 10 -4 10 -3 0
-8 -4 -11 -10z"/>
<path d="M240 340 c0 -7 3 -10 7 -7 3 4 3 10 0 14 -4 3 -7 0 -7 -7z"/>
<path d="M315 320 c3 -5 8 -10 11 -10 2 0 4 5 4 10 0 6 -5 10 -11 10 -5 0 -7
-4 -4 -10z"/>
<path d="M260 270 c0 -7 3 -10 7 -7 3 4 3 10 0 14 -4 3 -7 0 -7 -7z"/>
<path d="M130 220 c0 -5 4 -10 9 -10 6 0 13 5 16 10 3 6 -1 10 -9 10 -9 0 -16
-4 -16 -10z"/>
<path d="M5970 180 c0 -7 3 -10 7 -7 3 4 3 10 0 14 -4 3 -7 0 -7 -7z"/>
<path d="M3200 80 c0 -7 3 -10 7 -7 3 4 3 10 0 14 -4 3 -7 0 -7 -7z"/>
</g>
</svg>
